<mxfile host="app.diagrams.net" modified="2021-06-12T13:25:57.560Z" agent="5.0 (Macintosh; Intel Mac OS X 10_15_7) AppleWebKit/605.1.15 (KHTML, like Gecko) Version/14.1.1 Safari/605.1.15" etag="XQvTyPveFHNmO0V5q8SF" version="14.7.7" type="github">
  <diagram id="aaqlvT2COIpE-IazAyf2" name="Page-1">
    <mxGraphModel dx="705" dy="645" grid="1" gridSize="10" guides="1" tooltips="1" connect="1" arrows="1" fold="1" page="1" pageScale="1" pageWidth="827" pageHeight="1169" math="0" shadow="0">
      <root>
        <mxCell id="0" />
        <mxCell id="1" parent="0" />
        <mxCell id="b9WQvAEmnDXINqWYrG84-1" value="hei&lt;br&gt;" style="rounded=0;whiteSpace=wrap;html=1;" vertex="1" parent="1">
          <mxGeometry x="110" y="200" width="120" height="60" as="geometry" />
        </mxCell>
        <mxCell id="b9WQvAEmnDXINqWYrG84-2" value="hei&lt;br&gt;" style="rounded=0;whiteSpace=wrap;html=1;" vertex="1" parent="1">
          <mxGeometry x="230" y="260" width="120" height="60" as="geometry" />
        </mxCell>
      </root>
    </mxGraphModel>
  </diagram>
</mxfile>
